<svg width="132" height="67" viewBox="0 0 132 67" fill="none" xmlns="http://www.w3.org/2000/svg">
<g clip-path="url(#clip0_190_1960)">
<path d="M72.7571 5.76396C74.1956 6.08953 74.6977 6.80769 74.6977 7.65991C74.6977 8.89516 73.4619 9.53672 71.8592 9.53672C69.2717 9.53672 68.48 8.08124 68.4414 7.19071L69.5807 6.86515C69.5807 6.86515 69.3779 8.70365 71.8302 8.70365C72.9019 8.70365 73.5488 8.2536 73.5488 7.71737C73.5488 7.08538 73.0178 6.89387 72.0523 6.66406L70.4399 6.29061C69.3103 6.03207 68.7504 5.40009 68.7504 4.6149C68.7504 3.62862 69.5614 2.72852 71.4151 2.72852C74.3115 2.72852 74.3887 4.6915 74.3887 4.6915L73.2495 4.99792C73.2495 4.99792 73.3653 3.57116 71.3765 3.57116C70.4786 3.57116 69.9089 3.96376 69.9089 4.51914C69.9089 5.01707 70.3434 5.2373 71.0772 5.40009L72.7667 5.77353L72.7571 5.76396Z" fill="#272727"/>
<path d="M75.5565 2.84375H82.2666V3.56191H79.4474V9.41256H78.3661V3.56191H75.5469V2.84375H75.5565Z" fill="#272727"/>
<path d="M89.8264 2.84375V6.70269C89.8264 8.59864 88.7644 9.53705 86.6886 9.53705C84.6128 9.53705 83.5508 8.59864 83.5508 6.70269V2.84375H84.6611V6.70269C84.6611 8.40713 85.4335 8.6944 86.6886 8.6944C87.9437 8.6944 88.7161 8.40713 88.7161 6.70269V2.84375H89.8264Z" fill="#272727"/>
<path d="M98.4692 6.13773C98.4692 8.16775 97.0789 9.42214 94.8583 9.42214H91.875V2.84375H94.8583C97.0789 2.84375 98.4692 4.09814 98.4692 6.13773ZM92.9853 8.70398H94.3466C96.2196 8.70398 97.301 7.8326 97.301 6.13773C97.301 4.44286 96.2293 3.56191 94.3466 3.56191H92.9853V8.6944V8.70398Z" fill="#272727"/>
<path d="M101.364 2.84375V9.41256H100.254V2.84375H101.364Z" fill="#272727"/>
<path d="M107.022 9.53672C104.666 9.53672 103.16 8.10996 103.16 6.1374C103.16 4.16485 104.666 2.72852 107.022 2.72852C109.378 2.72852 110.894 4.15527 110.894 6.1374C110.894 8.11954 109.378 9.53672 107.022 9.53672ZM107.022 3.56159C105.419 3.56159 104.328 4.68192 104.328 6.1374C104.328 7.59289 105.419 8.70365 107.022 8.70365C108.625 8.70365 109.725 7.58331 109.725 6.1374C109.725 4.6915 108.634 3.56159 107.022 3.56159Z" fill="#272727"/>
<path d="M63.711 50.2813C60.8629 52.7996 55.7072 58.7939 52.8977 52.8188C52.357 51.6697 51.9322 50.4153 51.5846 49.1035C57.8506 37.3735 57.1554 20.0322 53.6218 8.50323C52.5404 4.96986 50.3778 -1.5032 45.4152 0.316152C40.9644 1.94399 40.0955 9.15437 39.9024 13.1091C39.6127 19.0746 40.974 25.1168 42.0264 30.9483C43.0208 36.4734 43.9477 42.0368 45.1352 47.5235C43.967 49.1992 42.596 50.7122 41.0223 51.9474C41.785 50.0898 42.2195 48.0789 42.2388 45.9053C42.2774 39.8248 37.6914 35.1424 32.0723 33.4092C30.4117 32.9017 28.7511 32.6815 27.1001 32.6815C31.0682 28.5065 33.4047 23.7283 29.7938 18.9597C25.5264 13.3293 16.364 14.306 8.97813 16.6041C8.09955 16.5563 7.24027 16.8148 6.66098 17.3893C4.73003 18.0883 2.99217 18.8544 1.59223 19.563C-2.009 21.3823 1.16742 26.7638 4.76865 24.9444C5.30932 24.6667 5.85964 24.4178 6.40996 24.1688C7.52991 36.8947 7.67474 49.6589 6.80581 62.4231C6.72857 63.5051 7.14372 64.2807 7.78094 64.7786C8.2154 65.7936 9.10364 66.6459 10.465 66.8086C17.1364 67.6226 25.7678 65.7841 32.362 61.6283C38.7341 61.1878 43.6098 58.7652 47.24 55.0882C48.5434 58.1524 50.6191 60.6037 54.4328 61.4368C60.4091 62.7486 64.1744 58.229 68.1812 54.686C71.2031 52.0049 66.7426 47.6097 63.74 50.2813H63.711ZM14.7517 21.6983C17.4647 21.3057 23.0258 20.4343 24.5416 23.0676C26.3374 26.1797 21.259 29.3683 19.1253 31.1111C17.233 32.6623 15.331 34.204 13.4386 35.7552C13.2552 31.2068 12.9269 26.668 12.4828 22.1292C13.2262 21.9569 13.9793 21.8132 14.742 21.7079L14.7517 21.6983ZM13.178 60.7665C13.5255 54.9924 13.68 49.2184 13.6221 43.4539C13.7572 43.4061 13.8924 43.3582 14.0276 43.2911C18.4301 40.9643 23.4699 38.2831 28.6352 39.0492C33.5399 39.7769 37.228 43.6071 35.3743 48.663C32.2654 57.1661 21.819 60.9293 13.178 60.7665ZM49.422 36.5595C48.4565 31.4271 47.4427 26.2946 46.68 21.1238C46.3228 18.7012 46.0718 16.2307 46.149 13.7794C46.1683 13.1186 46.5352 9.91084 46.96 7.9287C48.7461 11.7685 48.9971 16.9584 49.3351 20.7025C49.8178 25.9403 50.2233 31.3313 49.4123 36.5595H49.422Z" fill="#272727"/>
<path d="M74.8342 24.1205C74.419 22.1001 72.2178 21.5447 70.5571 22.1479C67.4773 20.6733 63.625 21.6692 61.2017 24.695C57.0694 29.8754 56.886 38.1199 59.5121 43.9802C61.5685 48.5573 67.1393 51.1331 70.6151 46.2879C71.3681 45.2441 72.0053 44.0855 72.546 42.8694C73.6563 45.9144 75.1914 48.7392 77.4506 51.1043C80.2409 54.0153 84.6821 49.601 81.8918 46.6996C76.6107 41.1841 76.2728 31.2447 74.8245 24.1301L74.8342 24.1205ZM65.7394 41.9789C64.2043 41.7778 64.0402 36.0516 64.1367 34.6823C64.185 34.012 66.5504 25.5951 68.0952 27.8933C68.3172 28.2188 68.5682 28.4678 68.8482 28.6785C68.8482 30.5648 68.7131 32.4416 68.3655 34.3089C68.1821 35.2664 66.6856 42.1033 65.7491 41.9789H65.7394Z" fill="#272727"/>
<path d="M129.353 28.2471C126.437 24.2158 121.571 21.6879 117.594 23.8903C117.034 23.9956 116.474 24.3116 115.991 24.9053C115.672 25.2979 115.373 25.7 115.083 26.1118C115.064 26.1309 115.045 26.1501 115.035 26.1788C115.006 26.2171 114.987 26.2554 114.958 26.2937C111.859 30.8612 110.72 36.7598 113.375 41.8827C113.539 42.1987 113.722 42.5051 113.906 42.8019C114.272 43.3669 114.359 44.0851 114.099 44.7075C114.06 44.7936 114.079 44.9277 114.002 44.9756C110.884 46.9481 109.542 30.6506 109.088 26.2363C108.634 21.7453 109.223 17.1395 98.989 20.4335C97.8304 20.8069 97.5118 25.9873 97.4442 28.7451C97.338 32.537 96.7877 38.1099 94.1036 41.0975C91.941 43.5105 88.9094 42.3423 87.5191 39.8527C86.4378 37.9088 86.1578 35.6011 86.0516 33.4275C85.9743 31.7997 85.9454 30.1144 86.1481 28.4961C86.3026 27.2417 88.4266 22.3773 89.6721 26.016C90.9755 29.7888 97.0484 28.1705 95.7353 24.3595C94.2871 20.1558 89.9135 17.3598 85.4626 19.0738C80.9249 20.8165 79.9111 25.9011 79.747 30.191C79.5346 35.5054 80.1718 41.6433 84.0627 45.6746C87.7605 49.5048 93.4761 49.974 97.5794 46.4311C100.881 43.5776 101.19 37.5833 101.625 32.8242C101.712 31.8667 102.436 31.0911 103.382 30.9283C103.942 30.8325 104.444 30.7655 104.473 30.9857C104.83 33.1498 107.031 50.1272 111.666 51.6114C115.074 52.703 117.69 51.2093 119.216 48.5568C119.631 47.8291 120.471 47.4652 121.311 47.561C123.792 47.8482 126.389 47.1014 128.552 45.033C133.138 40.6474 132.906 33.1402 129.353 28.228V28.2471ZM123.348 41.1837C120.191 42.6296 118.376 38.5791 118.192 36.1661C117.999 33.7818 118.81 31.4071 120.278 29.5303C120.336 29.4632 120.403 29.4058 120.461 29.3387C121.61 27.8258 125.076 33.1785 125.327 33.9158C126.109 36.214 125.964 40.0059 123.358 41.1933L123.348 41.1837Z" fill="#272727"/>
<path d="M123.551 20.9793C126.727 19.3611 128.938 16.6225 130.222 13.3668C130.84 11.7964 129.546 9.94834 128.03 9.53659C126.254 9.04824 124.786 10.1398 124.169 11.7102C124.284 11.4038 124.024 12.0071 123.995 12.0645C123.86 12.3231 123.724 12.572 123.57 12.8114C123.232 13.3477 123.242 13.3381 122.798 13.8169C121.977 14.6882 121.504 15.0138 120.384 15.5883C118.878 16.3544 118.434 18.461 119.254 19.8494C120.152 21.3719 122.044 21.7358 123.551 20.9698V20.9793Z" fill="#272727"/>
</g>
<defs>
<clipPath id="clip0_190_1960">
<rect width="132" height="67" fill="black"/>
</clipPath>
</defs>
</svg>
