<svg width="128" height="41" viewBox="0 0 128 41" fill="none" xmlns="http://www.w3.org/2000/svg">
<g clip-path="url(#clip0_190_1741)">
<path d="M63.2653 25.652C61.491 25.652 59.7104 25.6919 57.3595 25.7696L57.4356 -0.000829923H69.1879L69.2006 4.1903C66.5392 4.1735 65.143 4.1693 62.4119 4.1735H62.2049V10.2964H62.4098C64.465 10.2922 65.5275 10.2964 67.5214 10.3153L67.5298 14.498C65.5232 14.4686 64.4798 14.4623 62.4077 14.4686H62.2028L62.1986 21.5008H62.4056C65.1789 21.4882 66.5667 21.505 69.2745 21.5826L69.2872 25.7738C66.8856 25.6919 65.0797 25.6499 63.2653 25.6499V25.652ZM83.5129 4.37718C85.076 4.40868 85.9209 4.42757 87.5473 4.46747L87.7479 4.47167V4.66905L87.9739 27.3738C89.8791 27.6363 90.8993 27.7917 92.775 28.1045L92.5236 4.59975L92.7391 4.60605C94.3591 4.65435 95.2019 4.67955 96.7544 4.73204L96.7037 -0.00292969H83.4791L83.5172 4.37508L83.5129 4.37718ZM70.7129 25.8284C72.3457 16.9947 73.9151 8.30794 75.3809 -0.000829923H81.1388C82.9574 9.70428 84.5986 18.5863 86.1532 27.1344C84.3325 26.8993 83.3334 26.7859 81.4725 26.5969L80.6446 20.7343L80.4777 20.7217C78.8259 20.5958 78.017 20.5433 76.3589 20.4467L76.1667 20.4362L76.1413 20.6252C75.8519 22.8236 75.702 23.9533 75.4189 26.0845C73.5686 25.9586 72.5653 25.904 70.7108 25.8284H70.7129ZM76.8426 16.2136L77.0707 16.2241C78.1057 16.2723 78.6232 16.2996 79.6582 16.3584L79.9137 16.3731L78.3084 6.46015L78.1141 7.7704C77.622 11.0691 77.3749 12.7132 76.8785 15.9889L76.8447 16.2136H76.8426ZM110.41 31.9345L110.365 26.6725C107.702 26.0782 106.337 25.799 103.577 25.2782L103.41 25.2467L103.325 17.0556L103.56 17.0871C105.611 17.3558 106.648 17.4986 108.6 17.7884L108.551 12.5957C106.563 12.392 105.507 12.2912 103.459 12.1064L103.273 12.0896L103.201 4.99451L103.416 4.98191C106.135 5.0911 107.529 5.15199 110.173 5.27588L110.127 0.00126984H98.3766L98.6934 29.1901C103.406 30.1287 105.788 30.6872 110.408 31.9345H110.41ZM116.901 20.2262L116.66 20.1863L116.742 33.7613C114.919 33.1985 113.918 32.9046 112.036 32.3796L111.772 -0.000829923H118.1C123.284 -0.000829923 125.7 3.50368 125.704 11.0271C125.709 16.833 124.167 18.9348 122.874 19.674L122.747 19.7475L122.775 19.8902C123.56 24.0331 124.084 26.8993 124.691 30.219C125.054 32.2138 125.447 34.3618 125.941 37.0348C124.129 36.3629 123.115 36.0038 121.214 35.3613C120.823 33.144 120.515 31.3382 120.232 29.6667C119.733 26.7376 119.302 24.2095 118.612 20.5853L118.582 20.4299L118.424 20.4173C118.01 20.3858 117.471 20.3165 116.907 20.222L116.901 20.2262ZM117.94 15.0461C118.181 15.0797 118.432 15.1049 118.679 15.1049C119.165 15.1049 119.642 15.0083 120.016 14.6807C120.69 14.0949 120.975 12.8413 120.967 10.4917C120.95 6.29006 119.974 5.49845 117.927 5.39137L116.569 5.32207L116.626 14.8697L117.938 15.0461H117.94ZM29.7381 28.8079C34.4104 27.9239 36.8119 27.5523 41.5433 26.9832L41.5834 22.5821C38.9157 22.8488 37.5428 23.0084 34.8117 23.3674L34.5751 23.3989L34.6554 15.781L34.8412 15.7642C36.8964 15.5752 37.9399 15.4891 39.9655 15.338L40.0077 10.8969C38.0307 10.9998 36.9704 11.0607 34.9257 11.1888L34.704 11.2035L34.7737 4.57876L34.9722 4.57246C37.6948 4.49477 39.0889 4.46117 41.7482 4.40448L41.7883 -0.000829923H30.0507L29.7381 28.8079ZM43.3239 26.7754C45.2122 26.5633 46.2366 26.4646 48.1461 26.305L48.2242 14.8277L48.4185 14.8193C50.5793 14.7164 51.6671 14.6744 53.7603 14.6114L53.7793 10.393C51.7073 10.4371 50.6047 10.4665 48.4671 10.5358L48.2538 10.5421L48.2981 4.28269H48.4988C51.4263 4.23649 52.9239 4.2197 55.7859 4.1987L55.8007 -0.00292969H43.5562L43.3239 26.7733V26.7754ZM16.277 31.8778C20.8943 30.6368 23.2769 30.0804 27.9871 29.1481L28.0399 24.3711C25.3954 24.8037 24.0267 25.0515 21.3146 25.5827L21.0654 25.631L21.1499 17.3222L21.3273 17.2991C23.3931 17.0178 24.4323 16.8855 26.4346 16.6482L26.4875 11.8061C24.521 11.9678 23.4649 12.0602 21.4308 12.2534L21.2027 12.2744L21.2745 5.0554L21.4709 5.047C24.1957 4.93362 25.5919 4.87902 28.2554 4.78663L28.3061 0.00126984H16.5579L16.2812 31.8799L16.277 31.8778ZM11.6576 15.5815L11.4464 15.7705L11.6935 15.9112C13.7783 17.0955 14.7351 19.2855 14.7055 22.8068C14.6548 28.9234 12.0779 32.9823 7.25154 34.5445C4.30078 35.4999 2.82012 36.0101 -0.00390625 37.0579V-0.000829923H7.03821C9.25392 -0.000829923 10.9838 0.608102 12.1814 1.80707C13.6156 3.24331 14.3296 5.56985 14.3042 8.71739C14.281 11.5479 13.2904 14.1159 11.6555 15.5836L11.6576 15.5815ZM4.98725 14.2041L6.45101 14.013C8.18303 13.7883 9.2687 12.1568 9.28138 9.75468C9.29194 7.91738 8.96032 6.70582 8.26751 6.04859C7.69088 5.50265 7.00019 5.47116 6.52283 5.49845L5.01893 5.58034L4.98936 14.202L4.98725 14.2041ZM9.71438 23.7391C9.72494 21.7779 9.38276 20.5769 8.63715 19.9574C8.06685 19.485 7.2621 19.3506 6.17642 19.5543L4.96613 19.7811L4.93233 29.7549L5.19425 29.6814C5.78355 29.5177 6.07715 29.4358 6.66646 29.2741C8.81035 28.6904 9.69326 27.0861 9.71227 23.7391H9.71438Z" fill="url(#paint0_linear_190_1741)"/>
<path d="M126.529 1.67188C127.338 1.67188 127.999 2.327 127.999 3.13331C127.999 3.93962 127.34 4.59475 126.529 4.59475C125.718 4.59475 125.059 3.93962 125.059 3.13331C125.059 2.327 125.718 1.67188 126.529 1.67188ZM126.533 4.37427C127.209 4.37427 127.718 3.83253 127.718 3.13331C127.718 2.43409 127.209 1.89025 126.533 1.89025C125.857 1.89025 125.34 2.43199 125.34 3.13331C125.34 3.83463 125.849 4.37427 126.533 4.37427ZM125.967 2.27451H126.626C127.021 2.27451 127.215 2.43199 127.215 2.75535C127.215 3.03042 127.04 3.2278 126.772 3.2278L127.26 3.98372H126.962L126.482 3.2278H126.246V3.98372H125.965V2.27241L125.967 2.27451ZM126.248 3.00942H126.581C126.797 3.00942 126.936 2.96533 126.936 2.74275C126.936 2.54958 126.761 2.49288 126.581 2.49288H126.248V3.01152V3.00942Z" fill="#6D6D6D"/>
<path d="M37.2352 39.108H34.3541V32.6785C34.3541 32.5588 34.2443 32.4496 34.1239 32.4496H32.6834C32.5503 32.4496 32.4531 32.5588 32.4531 32.6785V40.6492C32.4531 40.7689 32.5503 40.8781 32.6834 40.8781H37.2373C37.3704 40.8781 37.4675 40.7689 37.4675 40.6492V39.3368C37.4675 39.2172 37.3704 39.108 37.2373 39.108H37.2352ZM44.1358 32.332C41.7131 32.332 39.7888 34.2701 39.7888 36.6785C39.7888 39.087 41.7152 40.9999 44.1358 40.9999C46.5564 40.9999 48.4954 39.087 48.4954 36.6785C48.4954 34.2701 46.5585 32.332 44.1358 32.332ZM44.1358 39.0723C42.8156 39.0723 41.7257 37.9888 41.7257 36.6764C41.7257 35.3641 42.8156 34.2554 44.1358 34.2554C45.4559 34.2554 46.5585 35.3515 46.5585 36.6764C46.5585 38.0014 45.4686 39.0723 44.1358 39.0723ZM58.8199 32.4517H57.3667C57.2336 32.4517 57.1364 32.5609 57.1364 32.6806V36.9557H57.1238L52.291 32.332H51.989C51.8686 32.332 51.7587 32.4286 51.7587 32.5483L51.7714 40.6513C51.7714 40.771 51.8812 40.8802 52.0016 40.8802H53.4422C53.5752 40.8802 53.6724 40.771 53.6724 40.6513V36.1599H53.6851L58.4692 40.939C58.4925 40.9621 58.5896 40.9978 58.6276 40.9978H58.822C58.9424 40.9978 59.0522 40.9012 59.0522 40.7815V32.6785C59.0522 32.5588 58.9424 32.4496 58.822 32.4496L58.8199 32.4517ZM66.1175 32.4517H63.1626C63.0422 32.4517 62.945 32.5609 62.945 32.6806V40.6513C62.945 40.771 63.0422 40.8802 63.1626 40.8802H66.1175C68.4558 40.8802 70.3694 38.9904 70.3694 36.6533C70.3694 34.3163 68.4558 32.4517 66.1175 32.4517ZM65.995 39.0975H64.8333V34.2218H65.995C67.3638 34.2218 68.3565 35.2927 68.3565 36.6533C68.3565 38.014 67.3638 39.0975 65.995 39.0975ZM77.3862 32.332C74.9635 32.332 73.0393 34.2701 73.0393 36.6785C73.0393 39.087 74.9656 40.9999 77.3862 40.9999C79.8068 40.9999 81.7458 39.087 81.7458 36.6785C81.7458 34.2701 79.8089 32.332 77.3862 32.332ZM77.3862 39.0723C76.0661 39.0723 74.9762 37.9888 74.9762 36.6764C74.9762 35.3641 76.0661 34.2554 77.3862 34.2554C78.7063 34.2554 79.8089 35.3515 79.8089 36.6764C79.8089 38.0014 78.719 39.0723 77.3862 39.0723ZM92.0703 32.4517H90.6171C90.484 32.4517 90.3869 32.5609 90.3869 32.6806V36.9557H90.3742L85.5414 32.332H85.2394C85.119 32.332 85.0092 32.4286 85.0092 32.5483L85.0218 40.6513C85.0218 40.771 85.1317 40.8802 85.2521 40.8802H86.6926C86.8257 40.8802 86.9228 40.771 86.9228 40.6513V36.1599H86.9355L91.7197 40.939C91.7429 40.9621 91.8401 40.9978 91.8781 40.9978H92.0724C92.1928 40.9978 92.3026 40.9012 92.3026 40.7815V32.6785C92.3026 32.5588 92.1928 32.4496 92.0724 32.4496L92.0703 32.4517Z" fill="#6D6D6D"/>
<path d="M37.2352 39.108H34.3541V32.6785C34.3541 32.5588 34.2443 32.4496 34.1239 32.4496H32.6834C32.5503 32.4496 32.4531 32.5588 32.4531 32.6785V40.6492C32.4531 40.7689 32.5503 40.8781 32.6834 40.8781H37.2373C37.3704 40.8781 37.4675 40.7689 37.4675 40.6492V39.3368C37.4675 39.2172 37.3704 39.108 37.2373 39.108H37.2352ZM44.1358 32.332C41.7131 32.332 39.7888 34.2701 39.7888 36.6785C39.7888 39.087 41.7152 40.9999 44.1358 40.9999C46.5564 40.9999 48.4954 39.087 48.4954 36.6785C48.4954 34.2701 46.5585 32.332 44.1358 32.332ZM44.1358 39.0723C42.8156 39.0723 41.7257 37.9888 41.7257 36.6764C41.7257 35.3641 42.8156 34.2554 44.1358 34.2554C45.4559 34.2554 46.5585 35.3515 46.5585 36.6764C46.5585 38.0014 45.4686 39.0723 44.1358 39.0723ZM58.8199 32.4517H57.3667C57.2336 32.4517 57.1364 32.5609 57.1364 32.6806V36.9557H57.1238L52.291 32.332H51.989C51.8686 32.332 51.7587 32.4286 51.7587 32.5483L51.7714 40.6513C51.7714 40.771 51.8812 40.8802 52.0016 40.8802H53.4422C53.5752 40.8802 53.6724 40.771 53.6724 40.6513V36.1599H53.6851L58.4692 40.939C58.4925 40.9621 58.5896 40.9978 58.6276 40.9978H58.822C58.9424 40.9978 59.0522 40.9012 59.0522 40.7815V32.6785C59.0522 32.5588 58.9424 32.4496 58.822 32.4496L58.8199 32.4517ZM66.1175 32.4517H63.1626C63.0422 32.4517 62.945 32.5609 62.945 32.6806V40.6513C62.945 40.771 63.0422 40.8802 63.1626 40.8802H66.1175C68.4558 40.8802 70.3694 38.9904 70.3694 36.6533C70.3694 34.3163 68.4558 32.4517 66.1175 32.4517ZM65.995 39.0975H64.8333V34.2218H65.995C67.3638 34.2218 68.3565 35.2927 68.3565 36.6533C68.3565 38.014 67.3638 39.0975 65.995 39.0975ZM77.3862 32.332C74.9635 32.332 73.0393 34.2701 73.0393 36.6785C73.0393 39.087 74.9656 40.9999 77.3862 40.9999C79.8068 40.9999 81.7458 39.087 81.7458 36.6785C81.7458 34.2701 79.8089 32.332 77.3862 32.332ZM77.3862 39.0723C76.0661 39.0723 74.9762 37.9888 74.9762 36.6764C74.9762 35.3641 76.0661 34.2554 77.3862 34.2554C78.7063 34.2554 79.8089 35.3515 79.8089 36.6764C79.8089 38.0014 78.719 39.0723 77.3862 39.0723ZM92.0703 32.4517H90.6171C90.484 32.4517 90.3869 32.5609 90.3869 32.6806V36.9557H90.3742L85.5414 32.332H85.2394C85.119 32.332 85.0092 32.4286 85.0092 32.5483L85.0218 40.6513C85.0218 40.771 85.1317 40.8802 85.2521 40.8802H86.6926C86.8257 40.8802 86.9228 40.771 86.9228 40.6513V36.1599H86.9355L91.7197 40.939C91.7429 40.9621 91.8401 40.9978 91.8781 40.9978H92.0724C92.1928 40.9978 92.3026 40.9012 92.3026 40.7815V32.6785C92.3026 32.5588 92.1928 32.4496 92.0724 32.4496L92.0703 32.4517Z" fill="#6D6D6D"/>
</g>
<defs>
<linearGradient id="paint0_linear_190_1741" x1="-0.00390625" y1="18.5275" x2="63.4798" y2="18.5275" gradientUnits="userSpaceOnUse">
<stop stop-color="#6D6D6D"/>
<stop offset="1" stop-color="#6D6D6D"/>
</linearGradient>
<clipPath id="clip0_190_1741">
<rect width="128" height="41" fill="white"/>
</clipPath>
</defs>
</svg>
