<svg width="246" height="303" viewBox="0 0 246 303" fill="none" xmlns="http://www.w3.org/2000/svg">
<g clip-path="url(#clip0_545_483)">
<path d="M244.189 213.03C243.729 212.65 243.419 212.08 243.419 211.32C243.369 203.27 242.049 195.31 241.569 187.29C241.539 186.72 241.679 186.26 241.929 185.91C238.809 171.9 230.149 159.28 221.749 147.91C220.769 146.58 218.679 145.67 218.369 145.17C216.439 142.14 215.919 139.48 212.779 136.01C210.559 133.56 206.979 129.52 203.779 129.9L205.209 132.42H203.059C203.459 129.4 200.919 127.79 199.959 125.1C198.279 120.44 201.769 112.53 200.939 106.13C200.749 104.64 199.369 103.09 199.469 102.95C199.529 102.86 200.399 103.14 200.699 102.58C203.679 97.0096 207.669 65.0795 206.619 58.7295C206.269 56.5895 203.539 56.3195 205.199 53.2995L203.049 54.0195C202.589 52.7995 204.079 52.3895 204.159 51.5395C204.529 47.7995 205.579 45.4095 205.789 42.8895C206.609 33.0595 202.389 15.2095 195.869 7.60955C184.349 -5.83045 161.209 0.519547 150.129 11.5495C145.859 15.7995 134.639 33.2195 133.389 39.4695C132.459 44.0795 130.559 48.7395 129.439 53.3995C128.119 58.8595 127.579 63.9796 126.869 69.5496C129.889 70.5496 127.159 70.3696 126.939 70.8895C126.169 72.7395 127.399 80.4195 126.619 82.3596C126.219 83.3495 124.989 83.3796 124.609 84.0096C123.209 86.3096 124.209 91.7095 123.919 94.6496C123.209 102 121.399 109.14 123.199 116.59C120.459 115.17 114.119 117.97 112.769 115.15C112.579 114.75 111.529 110.3 111.389 109.46C110.729 105.6 111.659 100.42 109.509 96.8095L110.919 96.1395L110.259 91.3996L108.829 92.1295C108.609 90.3795 108.929 86.9696 106.669 87.0796C110.699 82.5396 106.329 77.1796 105.569 73.0796C105.439 72.3596 106.099 71.1895 105.959 70.2395C105.429 66.7196 105.249 63.1995 104.499 59.7595L101.639 60.4795C100.789 58.5695 102.869 58.3295 102.919 57.9695C103.429 54.0095 103.819 50.8795 102.349 46.8195C104.629 46.9895 104.779 47.0095 104.499 44.6595L102.359 46.0995V42.4995H98.7592C97.9592 40.2495 100.499 41.4395 100.849 41.0295C101.469 40.2995 100.589 36.3595 99.4992 35.7095C98.2992 34.9795 94.9592 36.5895 94.4292 31.7295L96.5892 31.3695C95.9092 28.9695 94.7492 30.1595 94.4392 29.9295C94.0192 29.6295 92.7792 22.0695 91.8992 20.2395C91.2092 18.8095 89.4192 18.5695 88.8992 17.8395C85.9292 13.6895 88.4692 13.6695 82.6792 8.59955C76.5592 3.24955 74.1592 1.95955 65.3292 2.22955C57.0292 2.47955 43.8492 12.5895 39.1692 19.2395C19.7792 46.7595 29.9792 98.7795 37.0592 129.75C37.5692 132 39.7792 134.93 39.7992 137.76C30.3192 145.1 22.1292 153.2 15.7492 163.42C10.0792 172.49 2.70923 189.12 1.64923 199.71C0.129233 214.83 -1.47077 228.35 2.45923 243.48C5.18923 253.98 12.3592 264.57 18.8792 271.66C23.5692 276.76 35.2092 285.6 41.2392 288.12C42.9292 288.83 54.1692 292.49 54.8992 292.1L55.2392 290.68L57.0592 292.82L59.8192 291.52L60.3492 292.89C64.8592 290.98 63.3192 293.7 64.4092 294.81C64.6492 295.05 70.0792 297.33 70.6892 297.53C71.9992 297.95 75.7592 298.42 77.1292 298.26C78.0792 298.15 79.5292 296.7 80.0592 297.16C81.6692 298.52 78.2092 298.38 78.6292 299.31C81.3892 299.5 92.6292 302.36 94.0192 299.32C94.2192 298.89 93.5992 297.95 93.7292 297.88C97.9792 299.92 96.9392 295.28 100.249 293.8L98.7692 289.97H101.639C102.809 294.89 97.8292 296.61 98.0492 300.75C100.539 299.45 103.189 301.82 105.569 302.03C111.079 302.54 117.549 302.09 122.899 301.62C125.099 301.43 127.549 302.83 129.409 302.85C131.909 302.89 133.709 300.61 136.159 302.19V300.02L136.889 302.18L139.029 300.74L140.069 302.72C143.109 301.4 149.729 303.17 150.569 299.3L152.369 300.73L153.779 299.29C154.599 300.05 155.599 300.56 156.719 300.71C158.489 300.94 165.899 299.65 167.769 298.89C168.919 298.42 170.329 296.67 171.189 296.54C172.039 296.42 172.429 297.7 174.109 297.41C177.799 296.75 185.289 291.73 189.949 290.8C191.429 290.5 192.669 291.21 193.809 291.01C195.209 290.77 197.019 288.86 198.479 288.73C199.549 288.63 200.719 289.42 201.859 289.27C202.169 289.23 205.239 285.83 206.429 285.05C209.319 283.15 213.259 281.8 215.669 279.91C216.719 279.09 217.409 277.25 217.559 277.15C217.799 277.01 218.769 277.94 219.989 277.11C221.229 276.27 221.939 273.7 223.919 273.06C224.019 272.84 220.729 272.65 223.909 271.01C225.509 270.19 228.259 271.63 229.659 270.2C230.639 269.2 230.509 267.63 231.199 266.67C235.689 260.44 238.569 257.5 240.339 249.13C240.569 248.05 239.789 246.57 240.099 246.06C240.459 245.47 241.909 245.42 242.449 244.21C244.429 239.74 246.229 221.85 245.549 216.93C245.349 215.48 244.489 214.35 244.199 213.07L244.189 213.03ZM223.849 219.15C225.629 222.62 223.459 222.1 223.239 222.85C219.319 236.26 221.159 244.49 209.899 255.39C195.469 269.35 162.669 277.84 143.029 278.39C140.319 278.47 137.699 276.68 135.089 279.87L134.329 278.4C130.849 279.59 124.809 277.96 121.469 278.4C120.289 278.56 119.669 279.83 118.559 279.89C118.239 279.91 118.739 277.8 114.989 278.47C111.399 279.11 113.399 278.74 110.479 278.59C108.529 278.49 106.499 279 104.529 278.43V280.58H108.499C108.439 281.91 108.969 283.89 107.409 284.18V281.3L102.369 281.31C102.399 283.13 102.099 284.99 101.659 286.75C101.359 287.96 102.379 288.84 100.209 288.49V281.3L98.4092 283.47C96.6492 281.38 98.7692 279.86 98.7592 277.71C91.3692 277.77 83.9192 275.13 76.6292 273.59C70.5792 272.31 53.3992 268.92 49.0792 265.16C44.3292 261.03 39.5192 258.01 34.7092 252.92C34.0192 252.19 32.5392 252.2 32.0492 251.63C31.6592 251.17 27.2192 242.02 26.7092 240.79C24.9192 236.5 24.5592 231.29 23.1992 227.16C22.9892 226.52 21.7792 226.61 21.7692 226.23C21.7392 225.33 22.8492 223.84 22.9792 222.56C24.3092 209.71 23.9492 200.76 29.1992 189.06C29.6392 188.08 29.9692 186.93 30.1992 185.88C30.5292 184.34 30.8092 181.88 32.0792 180.09C35.0792 175.91 42.1292 169.7 44.7292 165.79C45.3492 164.85 45.3592 162.99 45.6592 162.74C46.1292 162.36 47.6992 162.8 48.4492 162.31C49.3992 161.69 48.7192 159.91 49.5992 158.96C50.3392 158.17 52.7892 157.92 53.2692 157.36C55.3592 154.97 54.2192 156.36 56.5792 154.61C61.5592 150.92 63.4792 149.45 64.1592 142.76C65.1992 132.4 59.4592 126.66 57.3492 118.07C54.6392 107.06 52.3592 95.9896 50.1892 84.2296C48.7192 76.3096 48.4592 53.1695 50.5292 45.7395C51.9992 40.4495 57.0892 31.8195 61.8292 28.9195C63.0292 28.1795 68.9592 25.9195 70.0292 26.3295C71.1192 26.7395 75.1892 31.9095 76.0092 33.2295C77.5992 35.8195 79.2592 41.7195 80.7092 43.4695C81.2992 44.1795 82.1692 43.8995 82.9392 43.9195C79.7192 46.7295 83.7392 48.5995 84.0392 50.7295C86.8392 70.3495 89.1292 90.5596 88.6592 110.41C88.5692 114.37 88.7892 118.36 88.6792 122.31L87.2592 122.64C89.2992 126.42 87.5392 130.75 90.5092 134.5C91.0492 135.18 94.8492 138.31 95.6192 138.74C101.279 141.87 109.209 139.85 115.209 138.54C116.299 138.3 117.629 139.76 117.469 137.42C119.259 138.96 120.909 139.09 123.219 138.84L122.489 137.41L123.899 137.44C123.509 139.85 127.579 138.75 129.169 138.1C129.949 137.78 129.239 136.07 131.119 136.68C131.669 142.75 140.759 141.37 143.749 137.43C145.619 134.97 146.779 127.92 146.109 124.97C145.099 120.55 144.709 123.25 145.409 117.54C145.629 115.7 144.199 116.03 146.259 114.08C145.999 112.71 145.679 111.37 144.079 111.49L145.529 110.32C146.239 107.75 144.559 106.67 144.279 105.26C143.979 103.74 146.079 102.48 143.309 101.76V101.1C146.439 92.5096 144.619 81.9096 146.039 72.7996C147.489 63.4696 151.659 54.7995 152.669 45.7995C158.879 43.2395 162.189 30.2395 166.379 26.2795C168.579 24.1995 175.029 23.2595 177.879 21.9295C178.389 22.2995 182.359 32.2495 182.709 33.6595C185.709 45.6395 185.539 69.4696 182.869 81.6096C181.029 89.9595 178.929 98.2395 177.929 106.88C177.419 111.31 175.609 121.98 175.699 125.49C175.879 133.01 181.139 139.93 187.959 142.79C188.609 143.06 189.869 142.52 190.149 142.76C191.129 143.6 190.529 145.25 190.959 145.89C191.349 146.48 193.139 146.28 193.569 146.89C193.899 147.37 193.679 148.84 194.379 150.01C197.329 154.95 206.579 159.35 208.419 164.04C208.789 164.99 208.919 165.89 208.809 166.89L207.379 166.16V167.59C208.359 167.65 208.859 167.97 209.389 168.8C210.849 171.07 218.639 186.32 219.279 188.43C220.149 191.32 222.749 204.39 223.139 207.59C223.549 210.99 221.259 216.81 225.349 217.97L223.849 219.1V219.15Z" fill="black"/>
<path d="M83.4579 217.069C75.5779 223.339 64.3779 205.089 73.2379 196.429C82.6079 187.259 93.5779 199.999 88.7779 210.529C88.6079 210.909 83.7879 216.799 83.4579 217.069Z" fill="black"/>
<path d="M174.04 188.77C178.38 192.71 176.84 199.17 175.05 204.02C174.08 206.65 172.35 210.45 169.49 211.24C166.22 212.15 161.46 209.58 160.31 206.46C159.32 203.78 157.89 196.65 158.49 194.03C158.6 193.53 159.64 193.52 159.68 193.4C159.86 192.85 159.06 192.26 159.82 191.02C162.86 186.08 169.63 184.78 174.04 188.77Z" fill="black"/>
<path d="M102.299 241.81C102.889 241.23 106.419 238.05 106.699 237.97C113.389 236.22 122.379 239.74 130.809 236.9C134.169 235.77 136.769 232.45 138.679 232.08C156.409 228.62 146.959 246.86 136.819 252.21C129.229 256.22 113.129 255.37 105.489 251.69C100.949 249.51 98.3292 245.7 102.299 241.8V241.81Z" fill="black"/>
</g>
<defs>
<clipPath id="clip0_545_483">
<rect width="245.69" height="302.83" fill="white"/>
</clipPath>
</defs>
</svg>
