<svg width="587" height="299" viewBox="0 0 587 299" fill="none" xmlns="http://www.w3.org/2000/svg">
<g clip-path="url(#clip0_413_692)">
<path d="M323.555 25.724C329.952 27.1769 332.185 30.3818 332.185 34.185C332.185 39.6975 326.689 42.5606 319.562 42.5606C308.056 42.5606 304.535 36.0653 304.363 32.0911L309.43 30.6382C309.43 30.6382 308.528 38.8429 319.433 38.8429C324.199 38.8429 327.076 36.8344 327.076 34.4414C327.076 31.6211 324.714 30.7664 320.421 29.7408L313.251 28.0743C308.227 26.9205 305.737 24.1001 305.737 20.5961C305.737 16.1946 309.344 12.1777 317.587 12.1777C330.467 12.1777 330.811 20.9379 330.811 20.9379L325.745 22.3054C325.745 22.3054 326.26 15.9382 317.415 15.9382C313.422 15.9382 310.889 17.6902 310.889 20.1687C310.889 22.3908 312.821 23.3737 316.084 24.1001L323.598 25.7667L323.555 25.724Z" fill="#272727"/>
<path d="M336.004 12.6914H365.843V15.8964H353.306V42.006H348.498V15.8964H335.961V12.6914H336.004Z" fill="#272727"/>
<path d="M399.458 12.6914V29.9126C399.458 38.3737 394.735 42.5615 385.504 42.5615C376.274 42.5615 371.551 38.3737 371.551 29.9126V12.6914H376.488V29.9126C376.488 37.519 379.923 38.801 385.504 38.801C391.086 38.801 394.521 37.519 394.521 29.9126V12.6914H399.458Z" fill="#272727"/>
<path d="M437.891 27.3914C437.891 36.4507 431.708 42.0487 421.833 42.0487H408.566V12.6914H421.833C431.708 12.6914 437.891 18.2894 437.891 27.3914ZM413.504 38.8438H419.558C427.887 38.8438 432.696 34.9551 432.696 27.3914C432.696 19.8277 427.93 15.8964 419.558 15.8964H413.504V38.801V38.8438Z" fill="#272727"/>
<path d="M450.766 12.6914V42.006H445.828V12.6914H450.766Z" fill="#272727"/>
<path d="M475.936 42.5606C465.459 42.5606 458.762 36.1935 458.762 27.3905C458.762 18.5876 465.459 12.1777 475.936 12.1777C486.412 12.1777 493.152 18.5449 493.152 27.3905C493.152 36.2362 486.412 42.5606 475.936 42.5606ZM475.936 15.8955C468.808 15.8955 463.957 20.8952 463.957 27.3905C463.957 33.8859 468.808 38.8429 475.936 38.8429C483.063 38.8429 487.957 33.8432 487.957 27.3905C487.957 20.9379 483.106 15.8955 475.936 15.8955Z" fill="#272727"/>
<path d="M283.317 224.39C270.652 235.628 247.725 262.379 235.231 235.714C232.827 230.586 230.937 224.988 229.392 219.133C257.256 166.786 254.165 89.3973 238.451 37.9473C233.642 22.1789 224.025 -6.70831 201.957 1.41089C182.164 8.67543 178.3 40.8531 177.441 58.5016C176.153 85.1241 182.207 112.088 186.887 138.112C191.309 162.769 195.431 187.597 200.712 212.083C195.516 219.561 189.42 226.313 182.421 231.825C185.813 223.535 187.745 214.561 187.831 204.861C188.003 177.726 167.609 156.829 142.621 149.095C135.236 146.83 127.852 145.847 120.51 145.847C138.156 127.216 148.546 105.892 132.489 84.6113C113.512 59.4845 72.7668 63.8432 39.922 74.099C36.0149 73.8854 32.1938 75.0392 29.6177 77.6031C21.0308 80.7226 13.3026 84.1412 7.07711 87.3034C-8.93744 95.4226 5.188 119.438 21.2026 111.319C23.6069 110.08 26.0541 108.969 28.5014 107.858C33.4818 164.649 34.1258 221.612 30.2617 278.575C29.9182 283.403 31.7644 286.865 34.5981 289.087C36.5302 293.616 40.4801 297.42 46.5339 298.146C76.2016 301.778 114.585 293.574 143.909 275.028C172.246 273.062 193.928 262.251 210.071 245.841C215.867 259.516 225.098 270.455 242.057 274.173C268.634 280.027 285.378 259.858 303.196 244.047C316.635 232.081 296.799 212.467 283.446 224.39H283.317ZM65.5968 96.8328C77.6614 95.0807 102.392 91.1921 109.132 102.944C117.118 116.832 94.5346 131.062 85.0461 138.839C76.6309 145.762 68.1729 152.642 59.7577 159.564C58.9419 139.266 57.4822 119.011 55.5072 98.7558C58.8131 97.9866 62.162 97.3456 65.5539 96.8755L65.5968 96.8328ZM58.5985 271.182C60.1441 245.414 60.8311 219.646 60.5735 193.921C61.1745 193.708 61.7756 193.494 62.3767 193.195C81.9548 182.811 104.367 170.846 127.337 174.264C149.147 177.512 165.548 194.605 157.305 217.168C143.48 255.114 97.0248 271.908 58.5985 271.182ZM219.774 163.154C215.481 140.249 210.973 117.344 207.581 94.2688C205.992 83.4575 204.876 72.4325 205.22 61.4929C205.306 58.5444 206.937 44.229 208.826 35.3833C216.769 52.5191 217.885 75.6801 219.388 92.3886C221.535 115.763 223.338 139.822 219.732 163.154H219.774Z" fill="#272727"/>
<path d="M332.783 107.643C330.937 98.6267 321.147 96.1482 313.763 98.8404C300.067 92.2595 282.936 96.7037 272.159 110.207C253.783 133.326 252.968 170.118 264.646 196.271C273.791 216.697 298.564 228.192 314.02 206.569C317.369 201.911 320.203 196.741 322.607 191.314C327.545 204.903 334.371 217.509 344.418 228.064C356.826 241.054 376.576 221.355 364.168 208.407C340.683 183.793 339.18 139.436 332.74 107.686L332.783 107.643ZM292.338 187.34C285.512 186.442 284.782 160.888 285.211 154.777C285.426 151.786 295.945 114.224 302.814 124.48C303.802 125.933 304.918 127.044 306.163 127.984C306.163 136.402 305.562 144.778 304.017 153.111C303.201 157.384 296.546 187.895 292.381 187.34H292.338Z" fill="#272727"/>
<path d="M575.23 126.06C562.264 108.069 540.625 96.7879 522.936 106.616C520.446 107.086 517.956 108.497 515.809 111.146C514.392 112.898 513.061 114.693 511.773 116.53C511.687 116.616 511.601 116.701 511.559 116.83C511.43 117 511.344 117.171 511.215 117.342C497.433 137.726 492.367 164.049 504.174 186.911C504.904 188.321 505.719 189.689 506.535 191.013C508.167 193.535 508.553 196.739 507.394 199.517C507.222 199.902 507.308 200.5 506.965 200.714C493.097 209.517 487.129 136.786 485.111 117.086C483.093 97.0443 485.712 76.49 440.201 91.19C435.049 92.8565 433.632 115.975 433.332 128.282C432.86 145.204 430.412 170.074 418.477 183.407C408.859 194.176 395.378 188.962 389.195 177.852C384.387 169.177 383.142 158.878 382.669 149.178C382.326 141.914 382.197 134.393 383.099 127.171C383.786 121.573 393.231 99.8647 398.77 116.103C404.566 132.94 431.572 125.718 425.733 108.71C419.292 89.9507 399.843 77.4728 380.05 85.1219C359.871 92.8993 355.363 115.59 354.633 134.734C353.688 158.451 356.522 185.843 373.825 203.833C390.269 220.926 415.686 223.02 433.933 207.209C448.617 194.475 449.991 167.724 451.923 146.486C452.309 142.213 455.529 138.751 459.737 138.025C462.227 137.598 464.459 137.298 464.588 138.281C466.177 147.939 475.966 223.704 496.574 230.327C511.73 235.199 523.366 228.533 530.149 216.696C531.995 213.448 535.731 211.824 539.466 212.251C550.5 213.533 562.049 210.2 571.667 200.97C592.061 181.398 591.03 147.896 575.23 125.974V126.06ZM548.525 183.791C534.486 190.244 526.414 172.168 525.598 161.4C524.739 150.759 528.346 140.162 534.872 131.786C535.13 131.487 535.43 131.23 535.688 130.931C540.797 124.18 556.21 148.067 557.327 151.357C560.804 161.613 560.16 178.535 548.568 183.834L548.525 183.791Z" fill="#272727"/>
<path d="M549.426 93.6256C563.551 86.4038 573.383 74.1823 579.093 59.6532C581.841 52.6451 576.088 44.3977 569.347 42.5602C561.447 40.3808 554.921 45.2523 552.173 52.2605C552.689 50.893 551.529 53.5852 551.401 53.8416C550.799 54.9953 550.198 56.1064 549.511 57.1747C548.009 59.5677 548.052 59.525 546.077 61.6616C542.427 65.5503 540.323 67.0032 535.343 69.5672C528.645 72.9858 526.67 82.3869 530.32 88.5832C534.313 95.3776 542.728 97.0015 549.426 93.5829V93.6256Z" fill="#272727"/>
</g>
<defs>
<clipPath id="clip0_413_692">
<rect width="587" height="299" fill="white"/>
</clipPath>
</defs>
</svg>
