<svg width="132" height="67" viewBox="0 0 132 67" fill="none" xmlns="http://www.w3.org/2000/svg">
<g clip-path="url(#clip0_567_310)">
<path d="M72.759 5.76396C74.1976 6.08953 74.6997 6.80769 74.6997 7.65991C74.6997 8.89516 73.4638 9.53672 71.8611 9.53672C69.2737 9.53672 68.482 8.08124 68.4434 7.19071L69.5826 6.86515C69.5826 6.86515 69.3799 8.70365 71.8322 8.70365C72.9039 8.70365 73.5507 8.2536 73.5507 7.71737C73.5507 7.08538 73.0197 6.89387 72.0542 6.66406L70.4419 6.29061C69.3123 6.03207 68.7523 5.40009 68.7523 4.6149C68.7523 3.62862 69.5633 2.72852 71.417 2.72852C74.3135 2.72852 74.3907 4.6915 74.3907 4.6915L73.2514 4.99792C73.2514 4.99792 73.3673 3.57116 71.3784 3.57116C70.4805 3.57116 69.9109 3.96376 69.9109 4.51914C69.9109 5.01707 70.3454 5.2373 71.0791 5.40009L72.7687 5.77353L72.759 5.76396Z" fill="white"/>
<path d="M75.5585 2.84375H82.2685V3.56191H79.4494V9.41256H78.368V3.56191H75.5488V2.84375H75.5585Z" fill="white"/>
<path d="M89.8274 2.84375V6.70269C89.8274 8.59864 88.7653 9.53705 86.6896 9.53705C84.6138 9.53705 83.5518 8.59864 83.5518 6.70269V2.84375H84.6621V6.70269C84.6621 8.40713 85.4344 8.6944 86.6896 8.6944C87.9447 8.6944 88.7171 8.40713 88.7171 6.70269V2.84375H89.8274Z" fill="white"/>
<path d="M98.4692 6.13773C98.4692 8.16775 97.0789 9.42214 94.8583 9.42214H91.875V2.84375H94.8583C97.0789 2.84375 98.4692 4.09814 98.4692 6.13773ZM92.9853 8.70398H94.3466C96.2196 8.70398 97.301 7.8326 97.301 6.13773C97.301 4.44286 96.2293 3.56191 94.3466 3.56191H92.9853V8.6944V8.70398Z" fill="white"/>
<path d="M101.365 2.84375V9.41256H100.255V2.84375H101.365Z" fill="white"/>
<path d="M107.025 9.53672C104.669 9.53672 103.163 8.10996 103.163 6.1374C103.163 4.16485 104.669 2.72852 107.025 2.72852C109.381 2.72852 110.897 4.15527 110.897 6.1374C110.897 8.11954 109.381 9.53672 107.025 9.53672ZM107.025 3.56159C105.422 3.56159 104.331 4.68192 104.331 6.1374C104.331 7.59289 105.422 8.70365 107.025 8.70365C108.628 8.70365 109.728 7.58331 109.728 6.1374C109.728 4.6915 108.637 3.56159 107.025 3.56159Z" fill="white"/>
<path d="M63.711 50.2813C60.8629 52.7996 55.7072 58.7939 52.8977 52.8188C52.357 51.6697 51.9322 50.4153 51.5846 49.1035C57.8506 37.3735 57.1554 20.0322 53.6218 8.50323C52.5404 4.96986 50.3778 -1.5032 45.4152 0.316152C40.9644 1.94399 40.0955 9.15437 39.9024 13.1091C39.6127 19.0746 40.974 25.1168 42.0264 30.9483C43.0208 36.4734 43.9477 42.0368 45.1352 47.5235C43.967 49.1992 42.596 50.7122 41.0223 51.9474C41.785 50.0898 42.2195 48.0789 42.2388 45.9053C42.2774 39.8248 37.6914 35.1424 32.0723 33.4092C30.4117 32.9017 28.7511 32.6815 27.1001 32.6815C31.0682 28.5065 33.4047 23.7283 29.7938 18.9597C25.5264 13.3293 16.364 14.306 8.97813 16.6041C8.09955 16.5563 7.24027 16.8148 6.66098 17.3893C4.73003 18.0883 2.99217 18.8544 1.59223 19.563C-2.009 21.3823 1.16742 26.7638 4.76865 24.9444C5.30932 24.6667 5.85964 24.4178 6.40996 24.1688C7.52991 36.8947 7.67474 49.6589 6.80581 62.4231C6.72857 63.5051 7.14372 64.2807 7.78094 64.7786C8.2154 65.7936 9.10364 66.6459 10.465 66.8086C17.1364 67.6226 25.7678 65.7841 32.362 61.6283C38.7341 61.1878 43.6098 58.7652 47.24 55.0882C48.5434 58.1524 50.6191 60.6037 54.4328 61.4368C60.4091 62.7486 64.1744 58.229 68.1812 54.686C71.2031 52.0049 66.7426 47.6097 63.74 50.2813H63.711ZM14.7517 21.6983C17.4647 21.3057 23.0258 20.4343 24.5416 23.0676C26.3374 26.1797 21.259 29.3683 19.1253 31.1111C17.233 32.6623 15.331 34.204 13.4386 35.7552C13.2552 31.2068 12.9269 26.668 12.4828 22.1292C13.2262 21.9569 13.9793 21.8132 14.742 21.7079L14.7517 21.6983ZM13.178 60.7665C13.5255 54.9924 13.68 49.2184 13.6221 43.4539C13.7572 43.4061 13.8924 43.3582 14.0276 43.2911C18.4301 40.9643 23.4699 38.2831 28.6352 39.0492C33.5399 39.7769 37.228 43.6071 35.3743 48.663C32.2654 57.1661 21.819 60.9293 13.178 60.7665ZM49.422 36.5595C48.4565 31.4271 47.4427 26.2946 46.68 21.1238C46.3228 18.7012 46.0718 16.2307 46.149 13.7794C46.1683 13.1186 46.5352 9.91084 46.96 7.9287C48.7461 11.7685 48.9971 16.9584 49.3351 20.7025C49.8178 25.9403 50.2233 31.3313 49.4123 36.5595H49.422Z" fill="white"/>
<path d="M74.8342 24.1205C74.419 22.1001 72.2178 21.5447 70.5571 22.1479C67.4773 20.6733 63.625 21.6692 61.2017 24.695C57.0694 29.8754 56.886 38.1199 59.5121 43.9802C61.5685 48.5573 67.1393 51.1331 70.6151 46.2879C71.3681 45.2441 72.0053 44.0855 72.546 42.8694C73.6563 45.9144 75.1914 48.7392 77.4506 51.1043C80.2409 54.0153 84.6821 49.601 81.8918 46.6996C76.6107 41.1841 76.2728 31.2447 74.8245 24.1301L74.8342 24.1205ZM65.7394 41.9789C64.2043 41.7778 64.0402 36.0516 64.1367 34.6823C64.185 34.012 66.5504 25.5951 68.0952 27.8933C68.3172 28.2188 68.5682 28.4678 68.8482 28.6785C68.8482 30.5648 68.7131 32.4416 68.3655 34.3089C68.1821 35.2664 66.6856 42.1033 65.7491 41.9789H65.7394Z" fill="white"/>
<path d="M129.354 28.2476C126.438 24.2163 121.572 21.6884 117.595 23.8908C117.035 23.9961 116.475 24.3121 115.992 24.9058C115.673 25.2984 115.374 25.7005 115.084 26.1123C115.065 26.1314 115.046 26.1506 115.036 26.1793C115.007 26.2176 114.988 26.2559 114.959 26.2942C111.86 30.8617 110.72 36.7603 113.376 41.8832C113.54 42.1992 113.723 42.5056 113.907 42.8024C114.273 43.3674 114.36 44.0855 114.1 44.708C114.061 44.7941 114.08 44.9282 114.003 44.9761C110.885 46.9486 109.543 30.6511 109.089 26.2368C108.635 21.7458 109.224 17.14 98.9899 20.434C97.8314 20.8074 97.5128 25.9878 97.4452 28.7455C97.339 32.5375 96.7886 38.1104 94.1046 41.098C91.942 43.511 88.9104 42.3428 87.5201 39.8532C86.4387 37.9093 86.1587 35.6016 86.0525 33.428C85.9753 31.8001 85.9463 30.1148 86.1491 28.4966C86.3036 27.2422 88.4276 22.3778 89.6731 26.0165C90.9765 29.7893 97.0493 28.171 95.7363 24.36C94.2881 20.1563 89.9144 17.3602 85.4636 19.0743C80.9259 20.817 79.9121 25.9016 79.748 30.1915C79.5356 35.5059 80.1728 41.6438 84.0637 45.6751C87.7614 49.5053 93.4771 49.9745 97.5803 46.4316C100.882 43.578 101.191 37.5838 101.626 32.8247C101.713 31.8672 102.437 31.0916 103.383 30.9288C103.943 30.833 104.445 30.766 104.474 30.9862C104.831 33.1503 107.032 50.1277 111.667 51.6119C115.075 52.7035 117.691 51.2097 119.217 48.5573C119.632 47.8296 120.472 47.4657 121.312 47.5615C123.793 47.8487 126.39 47.1018 128.553 45.0335C133.139 40.6479 132.907 33.1407 129.354 28.2285V28.2476ZM123.349 41.1842C120.192 42.6301 118.377 38.5796 118.193 36.1666C118 33.7823 118.811 31.4075 120.279 29.5307C120.337 29.4637 120.404 29.4063 120.462 29.3392C121.611 27.8263 125.077 33.179 125.328 33.9163C126.11 36.2145 125.965 40.0064 123.359 41.1937L123.349 41.1842Z" fill="white"/>
<path d="M123.551 20.9798C126.727 19.3616 128.938 16.623 130.222 13.3673C130.84 11.7969 129.546 9.94882 128.03 9.53708C126.254 9.04872 124.786 10.1403 124.169 11.7107C124.284 11.4043 124.024 12.0076 123.995 12.065C123.86 12.3236 123.724 12.5725 123.57 12.8119C123.232 13.3481 123.242 13.3386 122.798 13.8173C121.977 14.6887 121.504 15.0143 120.384 15.5888C118.878 16.3549 118.434 18.4615 119.254 19.8499C120.152 21.3724 122.044 21.7363 123.551 20.9703V20.9798Z" fill="white"/>
</g>
<defs>
<clipPath id="clip0_567_310">
<rect width="132" height="67" fill="white"/>
</clipPath>
</defs>
</svg>
