<svg width="79" height="62" viewBox="0 0 79 62" fill="none" xmlns="http://www.w3.org/2000/svg">
<g clip-path="url(#clip0_190_1707)">
<path d="M5.63884 0.492342H0.542068V19.9142H8.80502V16.1375H5.63884V0.492342ZM27.3387 0.492342H22.7053V19.9142H26.9526L27.1457 11.4355L29.8871 19.9142H34.0958L34.2117 19.7986V0.492342H29.9644L29.8485 9.20243L27.3387 0.492342ZM35.5245 19.9142H43.9805C45.3435 19.9142 47.115 18.7692 47.2393 17.3095C47.2223 12.9568 47.6038 8.25632 47.3428 3.91901C47.1899 1.37368 45.2091 0.749882 42.9797 0.489258L35.5245 0.492342V19.9142ZM66.5298 0.492342H62.0123V19.9142H66.2596L66.3376 11.4362L69.2327 19.9142H73.4414V0.492342H69.1941V9.27877L66.5298 0.492342ZM59.6801 21.0932C56.7641 21.3091 54.7424 22.8837 54.442 25.8847C54.6227 29.3407 54.2119 33.0202 54.442 36.45C54.7231 40.6508 58.4708 41.9516 62.1706 41.2276C65.0603 40.6624 66.1723 38.801 66.3414 35.9873C66.5322 32.8174 66.1893 29.4602 66.3414 26.2702C66.3059 22.4565 63.1552 20.8364 59.6809 21.094L59.6801 21.0932ZM28.8832 27.3906H33.478L33.5939 27.2749V25.1167C33.5939 20.0492 24.5178 20.1078 22.9231 23.5614C22.2613 24.9949 22.3161 28.2496 23.0011 29.6776C24.1085 31.9862 28.3102 33.004 28.9218 34.867C29.1242 35.4831 29.1574 37.4177 28.7635 37.9443C28.4423 38.3738 27.6075 38.4201 27.3565 37.8927C27.3187 37.8133 27.1851 37.2774 27.1851 37.2164V34.1722H22.4744C22.4659 36.7245 22.1663 39.5551 24.8653 40.842C27.0654 41.8915 31.5737 41.7234 33.1182 39.5921C34.0812 38.2636 34.0564 34.6387 33.634 33.0919C32.9128 30.4525 29.7937 29.5111 27.887 27.9604C27.3048 27.487 27.2059 27.0968 27.182 26.3527C27.155 25.5038 27.165 24.2045 28.3658 24.4775C28.5959 24.5299 28.884 24.9139 28.884 25.1159V27.3898L28.8832 27.3906ZM5.63884 25.4637H9.0753L9.19114 25.348V21.5713L9.0753 21.4556H0.58068L0.464844 21.5713V40.9546H5.63884V32.7851H8.65057V29.0083H5.63884V25.4629V25.4637ZM22.0103 40.9546L19.3492 21.5296L19.1183 21.4518L11.9272 21.5273L9.42281 40.9546H14.4037L14.8671 37.4863H16.6046L16.8363 40.9546H22.0103ZM47.9575 21.4556V40.9546H53.1315V21.4556H47.9575ZM72.1286 21.4556H67.5724V40.9546H71.8197L71.8977 32.3995L74.7928 40.9546H79.0015V21.4556H74.87L74.7542 21.5713V30.3192L72.1286 21.4556ZM40.0807 21.5327H34.9839V40.9546H40.0035V32.9393H41.7024V40.9546H46.7219V21.5327H41.7024V28.4693H40.0035L40.0807 21.5327ZM26.0259 46.5041H29.5396L29.6555 46.3884V42.6117L29.5396 42.496H21.0064V61.995H29.7713C29.9597 61.8238 29.8076 61.4815 29.8192 61.271C29.8779 60.213 29.9682 59.1197 29.8099 58.064H26.0259V53.864L26.1418 53.7483H29.2693V50.1258H26.0259V46.5033V46.5041ZM35.8334 46.5041H39.3471L39.4629 46.3884V42.6117L39.3471 42.496H30.8138V61.995H39.6173V58.1797L39.5015 58.064H35.8334V53.7483H39.0768V50.1258H35.8334V46.5033V46.5041ZM52.7454 42.496H47.9961L45.6408 49.5097V42.5731H40.6212V61.995H45.6408V54.1339L47.7645 61.995H53.0543L49.8225 51.2423L52.7454 42.496Z" fill="white"/>
<path d="M0 42.4961L4.93847 42.5007L5.90762 55.2142L7.52933 42.4961H12.7419L13.9767 55.2135L15.2903 42.4961H20.1554L17.7939 62.0005L11.433 61.9912L10.0777 51.6673L8.4869 61.9874L2.11825 61.9234L0.152903 43.5386L0 42.8816V42.4961Z" fill="#6D6D6D"/>
<path d="M55.5254 0.029211C58.6908 0.32916 60.5071 2.15276 60.7025 5.30569C60.8955 8.42161 60.5488 11.7318 60.7025 14.8694C60.6616 19.1727 57.4375 20.8105 53.4882 20.29C50.2711 19.8659 48.9058 17.9043 48.7305 14.7884C48.5753 12.0272 48.5745 8.29901 48.7266 5.53701C48.9035 2.317 50.6047 0.317594 53.9037 0.029211C54.3331 -0.0085718 55.0984 -0.010885 55.5254 0.029211ZM54.6976 3.71496C54.2952 3.70956 53.967 4.07043 53.967 4.51765L53.9809 16.1987C53.9809 16.6667 54.2937 17.0477 54.6829 17.0554C55.0814 17.0631 55.4072 16.6768 55.4072 16.1979L55.4096 4.51688C55.4096 4.07814 55.0922 3.72036 54.6976 3.71496Z" fill="#6D6D6D"/>
<path d="M16.2167 0.0294937C18.5813 0.247709 21.0355 1.69965 21.2919 4.25114C21.3035 7.7688 21.6108 11.5949 21.3938 15.1002C21.2069 18.1136 19.7582 19.887 16.7087 20.2895C13.0915 20.7668 9.78244 19.3997 9.4944 15.4079C9.25037 12.0174 9.68591 8.34093 9.4944 4.92044C9.70908 2.04123 11.7918 0.287805 14.595 0.0294937C15.0205 -0.00983123 15.7912 -0.00983123 16.2167 0.0294937ZM16.2167 16.2853L16.2191 5.08082C16.2191 4.65133 15.8978 4.3028 15.5009 4.30049C15.107 4.29818 14.785 4.63745 14.7757 5.06231L14.7904 16.2853C14.7904 16.7056 15.1032 17.0479 15.4924 17.0549C15.8909 17.0618 16.2167 16.7148 16.2167 16.2846V16.2853Z" fill="#6D6D6D"/>
<path d="M35.5234 19.9142V0.492342L42.9786 0.489258C45.2081 0.749882 47.1889 1.37291 47.3418 3.91901C47.6028 8.25632 47.2213 12.9568 47.2383 17.3095C47.114 18.7692 45.3417 19.9142 43.9794 19.9142H35.5234ZM40.6202 16.523C41.577 16.55 42.1122 16.651 42.2326 15.5499L42.2458 4.99697C42.1624 3.79101 41.8064 3.66301 40.6202 3.72855V16.5223V16.523Z" fill="#6D6D6D"/>
<path d="M40.0772 21.5322L40 28.4688H41.6989V21.5322H46.7185V40.9541H41.6989V32.9388H40V40.9541H34.9805V21.5322H40.0772Z" fill="#6D6D6D"/>
<path d="M27.3366 0.492188L29.8463 9.20227L29.9622 0.492188H34.2095V19.7984L34.0936 19.9141H29.8849L27.1435 11.4353L26.9504 19.9141H22.7031V0.492188H27.3366Z" fill="#6D6D6D"/>
<path d="M72.1265 21.4551L74.7521 30.3186V21.5707L74.868 21.4551H78.9994V40.9541H74.7907L71.8956 32.3997L71.8176 40.9541H67.5703V21.4551H72.1265Z" fill="#6D6D6D"/>
<path d="M66.5293 0.492188L69.1935 9.27861V0.492188H73.4408V19.9141H69.2321L66.337 11.4361L66.259 19.9141H62.0117V0.492188H66.5293Z" fill="#6D6D6D"/>
<path d="M59.6778 21.0928C63.1521 20.8353 66.3028 22.4553 66.3384 26.269C66.1862 29.459 66.5291 32.8163 66.3384 35.9862C66.1692 38.7998 65.0572 40.662 62.1675 41.2264C58.4677 41.9497 54.7208 40.6496 54.4389 36.4488C54.2096 33.0198 54.6196 29.3395 54.4389 25.8835C54.7393 22.8825 56.7611 21.3079 59.677 21.092L59.6778 21.0928ZM60.3883 37.4443C60.7821 37.4443 61.101 37.125 61.1018 36.7318L61.1041 25.7624C61.1041 25.3237 60.7867 24.9659 60.3921 24.9605C59.9898 24.9551 59.6616 25.316 59.6616 25.7632L59.6747 36.7318C59.6747 37.125 59.9952 37.4443 60.389 37.4435L60.3883 37.4443Z" fill="#6D6D6D"/>
<path d="M52.7452 42.4961L49.8223 51.2424L53.0541 61.9959H47.7643L45.6406 54.134V61.9959H40.6211V42.5732H45.6406V49.5098L47.996 42.4961H52.7452Z" fill="#6D6D6D"/>
<path d="M22.0094 40.954H16.8354L16.6037 37.4857H14.8662L14.4028 40.954H9.42188L11.9262 21.5267L19.1173 21.4512L19.3482 21.529L22.0094 40.954ZM16.4492 34.0182L15.7156 26.1563L14.7503 34.0182H16.4492Z" fill="#6D6D6D"/>
<path d="M28.8813 27.3899V25.116C28.8813 24.914 28.5933 24.53 28.3631 24.4775C27.1623 24.2053 27.1523 25.5038 27.1793 26.3528C27.2032 27.0969 27.3021 27.487 27.8843 27.9605C29.791 29.5103 32.9101 30.4526 33.6313 33.092C34.0538 34.6388 34.0785 38.2636 33.1155 39.5922C31.571 41.7227 27.0627 41.8908 24.8626 40.8421C22.1636 39.5552 22.464 36.7245 22.4717 34.1723H27.1824V37.2165C27.1824 37.2774 27.3168 37.8133 27.3538 37.8927C27.6048 38.4201 28.4396 38.3731 28.7608 37.9444C29.1547 37.4177 29.1215 35.4831 28.9191 34.867C28.3075 33.0041 24.1058 31.9863 22.9984 29.6777C22.3134 28.2496 22.2586 24.9949 22.9204 23.5615C24.5151 20.1078 33.5912 20.05 33.5912 25.1167V27.275L33.4754 27.3907H28.8805L28.8813 27.3899Z" fill="#6D6D6D"/>
<path d="M26.0235 46.5034V50.1259H29.2669V53.7484H26.1393L26.0235 53.8641V58.0641H29.8074C29.965 59.1197 29.8754 60.2131 29.8167 61.2711C29.8051 61.4808 29.9572 61.8239 29.7688 61.9951H21.0039V42.4961H29.5371L29.653 42.6118V46.3885L29.5371 46.5042H26.0235V46.5034Z" fill="#6D6D6D"/>
<path d="M35.832 46.5042V50.1267H39.0755V53.7492H35.832V58.0649H39.5002L39.616 58.1806V61.9959H30.8125V42.4961H39.3457L39.4616 42.6118V46.3885L39.3457 46.5042H35.832Z" fill="#6D6D6D"/>
<path d="M5.63884 25.4631V29.0085H8.65057V32.7845H5.63884V40.9541H0.464844V21.5707L0.58068 21.4551H9.0753L9.19114 21.5707V25.3475L9.0753 25.4631H5.63884Z" fill="#6D6D6D"/>
<path d="M5.63584 0.492188V16.1373H8.80202V19.9141H0.539062V0.492188H5.63584Z" fill="#6D6D6D"/>
<path d="M53.131 21.4551H47.957V40.9541H53.131V21.4551Z" fill="#6D6D6D"/>
</g>
<defs>
<clipPath id="clip0_190_1707">
<rect width="79" height="62" fill="white"/>
</clipPath>
</defs>
</svg>
