<svg width="170" height="46" viewBox="0 0 170 46" fill="none" xmlns="http://www.w3.org/2000/svg">
<g clip-path="url(#clip0_190_1726)">
<path d="M53.6084 26.6984C45.4322 34.9792 28.347 32.142 25.3219 20.0055C21.6748 5.35974 36.553 -4.03445 49.139 1.70908C58.604 6.02859 60.9772 19.2353 53.6084 26.6984ZM53.9386 15.7572C53.9386 8.71696 48.3039 3.01011 41.3526 3.01011C34.4014 3.01011 28.7667 8.71696 28.7667 15.7572C28.7667 22.7974 34.4014 28.5043 41.3526 28.5043C48.3039 28.5043 53.9386 22.7974 53.9386 15.7572Z" fill="#6D6D6D"/>
<path d="M80.634 4.55078C85.6659 5.27358 88.3458 11.8413 85.1141 15.9925C83.7464 17.7467 82.5577 17.8437 80.7981 18.7456C80.5978 18.8492 80.4529 18.6852 80.5318 19.1103L87.9858 29.3632H83.4056L75.9494 19.0067H65.8304V29.3632H62.4219V4.55078H80.6362H80.634ZM78.9298 7.35566H66.0413V15.9861H79.1428C79.6477 15.9861 81.1943 15.0281 81.5905 14.5815C83.9211 11.9708 82.2573 7.82817 78.9298 7.35566Z" fill="#6D6D6D"/>
<path d="M116.102 29.3629L128.492 4.58499L133.472 4.5332L146.139 29.3607H141.665L138.329 22.9224L123.536 23.0217L120.575 29.3607H116.102V29.3629ZM136.766 19.6537L131.225 8.21838L125.262 19.6537H136.766Z" fill="#6D6D6D"/>
<path d="M114.399 4.55078V7.35566H96.2916V15.123H109.713V17.9279H96.2916V26.5583H114.399V29.5789H92.457V4.55078H114.399Z" fill="#6D6D6D"/>
<path d="M151.465 4.55078V26.5583H169.999V29.5789H147.844V4.55078H151.465Z" fill="#6D6D6D"/>
<path d="M3.19549 4.55078V26.774H21.7293V29.5789H0V4.55078H3.19549Z" fill="#6D6D6D"/>
<path d="M91.2856 36.0518C91.4603 36.0884 92.7193 36.8393 92.8876 37.0184C94.3746 38.6042 93.2306 41.2516 91.1791 41.4479C90.7914 41.901 93.8377 45.0597 94.1615 45.7588C93.6439 45.6595 92.453 45.9336 92.0759 45.7135C91.5838 45.4265 89.7837 42.1556 88.9422 41.6615H85.2142V45.761H83.2969V36.0518H91.2856ZM85.5635 37.1608L85.3079 37.3334C85.2312 37.9504 84.9394 40.3475 85.5635 40.5525C87.2359 40.4791 92.1633 41.3443 91.8118 38.5524C91.5327 36.3387 87.1187 37.3226 85.5635 37.1608Z" fill="#6D6D6D"/>
<path d="M114.612 38.8565C112.525 39.247 113.187 38.4379 112.258 37.6806C110.543 36.2781 105.663 37.057 106.928 38.9816C107.859 40.3992 112.802 39.5685 114.51 41.657C115.694 43.1048 114.661 44.6518 113.198 45.3034C110.343 46.5721 105.056 46.3649 104.387 42.5266C106.519 42.0044 106.036 43.409 107.165 44.134C108.479 44.9754 111.485 44.8632 112.772 44.0045C113.96 43.2127 113.098 42.3453 112.139 41.9008C110.147 40.9774 104.001 41.4089 105.122 37.7669C105.989 34.9534 114.666 34.9793 114.612 38.8565Z" fill="#6D6D6D"/>
<path d="M79.8881 45.7583L77.7918 45.7259C77.681 45.6569 76.9099 43.6762 76.5882 43.3849C75.9704 42.8218 71.175 43.3677 70.0247 43.1692L68.5526 45.7173L66.6758 45.6526L71.8951 36.267C72.27 35.9283 74.1575 35.842 74.5388 36.4008L79.8881 45.7604V45.7583ZM75.6274 41.8768C75.4612 41.4949 73.3011 37.4019 73.0731 37.5616L70.7277 41.8768H75.6274Z" fill="#6D6D6D"/>
<path d="M57.5207 41.6615V45.761H55.8164V36.0518H63.5921C63.9329 36.0518 65.2729 36.9946 65.5009 37.3549C66.1101 38.3086 65.9418 40.0045 65.0876 40.8028C64.8277 41.0466 63.4408 41.6615 63.166 41.6615H57.5207ZM57.7337 40.5827H62.3139C63.0744 40.5827 64.2056 39.7801 64.2802 38.9322C64.3441 38.2007 63.3982 37.1306 62.74 37.1306H57.7337V40.5827Z" fill="#6D6D6D"/>
<path d="M22.583 4.55078C21.39 7.00397 20.3908 9.69018 18.9976 12.0312C18.6376 12.6375 18.546 13.1035 17.8025 13.1963C17.059 13.2891 16.0918 13.1898 15.3398 13.0755L19.0658 4.55078H22.5808H22.583Z" fill="#6D6D6D"/>
<path d="M100.339 38.8564H98.4219V45.7608H100.339V38.8564Z" fill="#6D6D6D"/>
<path d="M109.712 0.451172L101.086 3.68973C101.531 2.48147 102.835 1.48898 103.64 0.451172H109.712Z" fill="#6D6D6D"/>
<path d="M100.344 36.0488H98.418V37.7814H100.344V36.0488Z" fill="#6D6D6D"/>
</g>
<defs>
<clipPath id="clip0_190_1726">
<rect width="170" height="46" fill="white"/>
</clipPath>
</defs>
</svg>
