<svg width="160" height="46" viewBox="0 0 160 46" fill="none" xmlns="http://www.w3.org/2000/svg">
<path d="M93.3125 33.3359C95.3879 33.336 96.6449 34.0659 97.7227 35.1064L96.4512 36.583C95.5506 35.7383 94.5844 35.17 93.2959 35.1699C91.155 35.1699 89.5773 36.9557 89.5771 39.1816V39.2139C89.5772 41.4378 91.1381 43.2402 93.2959 43.2402C94.6794 43.2401 95.5653 42.6891 96.5312 41.7783L97.8027 43.0762C96.6279 44.3104 95.3416 45.0898 93.2324 45.0898C90.0509 45.0898 87.6555 42.6671 87.5088 39.5479L87.501 39.2461V39.2139C87.501 35.9812 89.8996 33.3359 93.3125 33.3359ZM155.575 33.3682C157.216 33.3682 158.52 33.8723 159.663 34.7979L158.601 36.3086C157.586 35.5446 156.571 35.1387 155.542 35.1387C154.384 35.1387 153.707 35.7385 153.707 36.4854V36.5176C153.707 37.3943 154.222 37.7835 156.395 38.3027C158.776 38.888 159.999 39.7485 159.999 41.6318V41.6631C159.999 43.7912 158.341 45.0575 155.975 45.0576C154.253 45.0576 152.629 44.4589 151.277 43.2412L152.469 41.8125C153.547 42.7552 154.642 43.2891 156.027 43.2891C157.251 43.289 158.022 42.704 158.022 41.8613V41.8291C158.022 41.0163 157.571 40.5781 155.479 40.0908C153.08 39.5056 151.729 38.7924 151.729 36.6963V36.6641C151.729 34.7149 153.338 33.3684 155.575 33.3682ZM111.307 44.8984H109.215L108.071 42.1523H102.743L101.585 44.8984H99.5557L104.513 33.4482H106.351L111.307 44.8984ZM121.757 41.3887V33.5293H123.704V44.8984H122.046L115.832 36.8115V44.8984H113.885V33.5293H115.72L121.757 41.3887ZM135.117 41.3887V33.5293H137.064V44.8984H135.406L129.192 36.8115V44.8984H127.245V33.5293H129.08L135.117 41.3887ZM140.605 33.5293H148.959V35.3154H142.584V38.2715H148.233V40.0566H142.584V43.1104H149.039V44.8955H140.604V33.5273L140.605 33.5293ZM103.469 40.3848H107.348L105.401 35.8369L103.469 40.3848ZM54.2451 8.5127C59.2737 3.88407 68.9784 5.57414 70.5986 12.7627C72.6025 21.652 64.5809 26.4255 56.8418 23.876L54.2451 22.3496V30.2207H47.8115L47.4951 29.9014V6.38477H54.2451V8.5127ZM99.415 14.3906C100.101 4.51002 115.899 3.48473 121.248 8.80078C125.635 13.1614 124.028 21.1845 118.215 23.5723C110.904 26.5748 98.7084 24.5843 99.415 14.3906ZM83.042 5.96191C88.7794 5.51926 96.0022 6.44276 96.8564 13.4082H89.8936C89.5055 10.5162 86.314 10.1051 83.9326 10.4795C78.9377 11.2627 79.138 19.2771 83.6836 19.9922C86.6133 20.4539 89.1827 19.8429 90.21 16.8125H97.0645C96.1511 23.9908 88.8152 25.1593 82.8311 24.6826C78.3909 24.3293 74.1701 22.2626 73.2842 17.502C71.9957 10.5879 76.5222 6.46418 83.042 5.96191ZM132.922 8.93848C135.472 6.32113 140.042 5.21288 143.402 6.77051C144.569 7.31105 145.004 8.31305 146.075 8.92383C147.094 7.88529 148.449 6.97223 149.843 6.53809C153.57 5.38052 159.921 6.26584 159.921 11.3857V23.7295L159.444 24.0078L153.171 23.8359H153.173V13.5146C153.173 13.319 152.726 12.2279 152.547 12.0186C151.492 10.7801 148.24 11.086 147.126 12.2031C147.021 12.3074 146.421 13.2377 146.421 13.3037V23.8379H139.671V13.0908C139.671 12.9461 139.289 12.2966 139.154 12.1221C137.72 10.2923 132.922 11.2675 132.922 13.9424V23.8379H126.172V6.59766H132.922V8.93848ZM21.0615 7.7002C23.9492 5.70827 28.921 5.16572 31.7812 7.44922C32.4752 8.00277 33.5742 9.9139 33.5742 10.748V23.8359H26.8242V12.876C26.8242 11.9396 25.1362 11.2035 24.3389 11.1162C22.6684 10.9334 20.0746 11.9735 20.0742 13.9395V23.8359H13.3242V12.876C13.3242 11.7715 11.2087 11.0497 10.2764 11.0625C9.34402 11.0753 6.78516 12.0227 6.78516 13.0889V23.8359H0.0351562V6.38477H6.25781C6.93251 6.77405 6.36177 8.64146 6.57617 8.93848C9.96376 5.39723 16.5121 4.5864 19.5537 8.93848C19.841 9.0098 20.6968 7.95121 21.0615 7.7002ZM43.9102 23.8359H37.1602V6.38477H43.9102V23.8359ZM116.479 14.5674C116.201 11.103 113.174 9.95615 110.088 10.4775V10.4795C105.314 11.2882 105.218 19.5391 110.451 20.0137C114.372 20.371 116.821 18.8044 116.479 14.5674ZM63.9482 15.8555C64.3849 11.5864 60.797 9.97068 57.1035 11.0752C54.1168 11.969 53.5201 16.4933 55.585 18.4385V18.4414C58.0108 20.7288 63.5452 19.8028 63.9482 15.8555ZM43.9102 4.46973H37.1602V0.425781H43.9102V4.46973Z" fill="#6D6D6D"/>
</svg>
