<svg width="153" height="61" viewBox="0 0 153 61" fill="none" xmlns="http://www.w3.org/2000/svg">
<g clip-path="url(#clip0_190_1746)">
<path d="M38.6227 36.8027L20.7569 57.5187L0 39.6289L17.8639 18.8396L26.7583 26.5169L33.8504 0L60.1663 7.11278L53.2339 33.6162H65.9638V61H38.6227V36.8027ZM38.6227 36.6582V33.6162H52.9453L27.0507 26.6633L38.6246 36.6601L38.6227 36.6582Z" fill="#6D6D6D"/>
<path d="M88.5596 42.4433L86.2244 57.0581L83.5777 57.0619L82.4986 48.4117L81.4406 57.085H78.5534L76.4375 42.4414L79.0477 42.6225C79.4055 45.2041 79.5459 47.8357 79.9268 50.4115C79.973 50.7159 80.0114 51.5732 80.2826 51.6888L81.2463 42.4414L83.6642 42.6225C84.0258 45.2079 84.1893 47.8299 84.5414 50.4134C84.5817 50.7063 84.6356 51.5771 84.9011 51.6888L85.8647 42.4414H88.5577L88.5596 42.4433Z" fill="#6D6D6D"/>
<path d="M148.384 25.6826L150.308 32.6182V25.6826H153.001V40.3243L150.398 40.1355L148.384 33.5814V40.3243H145.691V25.6826H148.384Z" fill="#6D6D6D"/>
<path d="M99.7186 23.3712H96.8333L95.8889 20.019L95.2945 19.9034V23.3712H92.6016V8.72949H96.3525C96.7256 8.72949 98.2337 9.33057 98.5511 9.60992C100.03 10.9084 100.04 16.0446 99.3763 17.7303C99.1204 18.3776 98.6165 18.6377 98.3683 19.2349L99.7186 23.3731V23.3712ZM95.2945 17.3989C96.0293 17.4702 96.6987 17.4374 96.9391 16.6379C97.1123 16.06 97.1238 12.5595 96.9411 11.993C96.7122 11.2879 95.9466 11.1743 95.2945 11.234V17.3989Z" fill="#6D6D6D"/>
<path d="M127.224 25.6826V31.6549H128.763V25.6826H131.456V40.3243C130.602 40.2049 129.429 40.6249 128.763 40.0353V33.9667H127.224V40.0353C126.559 40.6249 125.385 40.2049 124.531 40.3243V25.6826H127.224Z" fill="#6D6D6D"/>
<path d="M80.7694 25.6825C81.5042 25.8039 82.9545 26.7556 83.1334 27.5532C83.3681 28.5974 83.5335 32.3503 82.212 32.7125C83.8566 33.5274 83.7047 38.2859 82.7237 39.2954C82.3736 39.6557 80.8482 40.3242 80.3847 40.3242H76.4414V25.6825C77.761 25.8366 79.5114 25.4745 80.7694 25.6825ZM78.942 31.8474C79.5114 31.8474 80.4308 32.0208 80.6347 31.3273C80.7444 30.9516 80.7405 28.8883 80.5809 28.5704C80.4077 28.2256 79.5133 28.0156 78.942 28.2853V31.8494V31.8474ZM78.942 37.8197H79.1209C79.9557 37.8197 80.6482 37.1705 80.702 36.3363C80.8001 34.7951 80.6713 33.8761 78.942 34.063V37.8197Z" fill="#6D6D6D"/>
<path d="M106.451 42.4434V48.6083L107.178 48.277C107.609 47.279 107.959 43.2372 108.467 42.6322C108.824 42.2084 110.633 42.5494 111.26 42.4434C111.529 42.7112 109.54 48.4504 109.513 49.4734C109.455 51.6118 111.127 54.8349 111.26 57.0832H108.374L106.93 50.7275L106.451 51.0146V57.0832H103.758V42.4415H106.451V42.4434Z" fill="#6D6D6D"/>
<path d="M110.873 25.6826V31.6549L111.467 31.5412L112.796 25.6826H115.681L113.787 32.7106L115.681 40.3243H112.796L111.467 34.0785L110.873 33.9667V40.3243H108.18V25.6826H110.873Z" fill="#6D6D6D"/>
<path d="M94.289 25.5341C96.6261 25.2798 98.1803 26.769 98.3765 29.0461C98.5208 30.7126 98.5823 36.9103 98.1264 38.2492C97.0531 41.401 91.6403 40.9888 91.2479 37.7271C91.0594 36.1531 91.0094 29.3525 91.296 27.9422C91.5403 26.7362 93.0983 25.6651 94.2871 25.5341H94.289ZM94.2621 28.0193C93.9043 28.1426 93.7927 28.8882 93.7542 29.2465C93.5792 30.963 93.5542 35.0724 93.7485 36.7639C93.9254 38.2955 95.4873 38.621 95.6797 36.9565C95.8721 35.292 95.8932 30.4679 95.6855 28.8535C95.5855 28.0713 94.9911 27.7669 94.2601 28.0212L94.2621 28.0193Z" fill="#6D6D6D"/>
<path d="M132.227 40.3242L135.008 25.8674L137.886 25.6709L140.69 40.3242H137.997L137.622 37.943L135.314 37.8293L134.92 40.3242H132.227ZM137.228 35.7005L136.46 30.4988L135.689 35.6985H137.228V35.7005Z" fill="#6D6D6D"/>
<path d="M91.8307 23.3709H89.1378L88.6415 20.8548L86.4468 20.8683L86.0601 23.3709H83.3672L86.0967 9.05477C86.316 8.46525 88.3607 8.74845 88.957 8.81395L91.8307 23.3709ZM88.3684 18.7472L87.6009 13.5475L86.8296 18.7472H88.3684Z" fill="#6D6D6D"/>
<path d="M78.942 19.9034V23.3712H76.4414V8.72949H80.1923C81.2579 8.72949 82.7525 9.78909 83.1334 10.7928C83.4777 11.7021 83.52 16.2237 83.3546 17.291C83.0372 19.3197 80.7251 20.0826 78.942 19.9034ZM78.942 17.3989C79.7268 17.4413 80.5078 17.5338 80.779 16.6379C80.9579 16.0446 80.9656 12.3861 80.7232 11.8582C80.3693 11.0837 78.942 11.0876 78.942 11.523V17.3989Z" fill="#6D6D6D"/>
<path d="M123.186 29.9212H120.493L120.223 28.17C119.779 27.8155 118.969 27.9407 118.8 28.5148V37.4925C119.013 38.2149 120.25 38.2149 120.454 37.4925C120.573 37.0706 120.337 36.2113 120.671 35.9763L123.074 35.8896C124.597 40.6867 117.051 42.2029 116.153 37.8315C115.878 36.4945 115.891 29.3124 116.199 28.0312C117.23 23.7408 124.284 25.2936 123.184 29.9212H123.186Z" fill="#6D6D6D"/>
<path d="M107.028 29.9215H104.335C104.343 29.2935 104.441 28.5768 103.952 28.0894C103.248 27.8332 102.627 27.9083 102.454 28.7117L102.498 37.4447C103.648 38.9974 104.641 37.3522 104.333 35.8919L106.712 35.9208L107.001 36.2097C107.624 41.001 100.561 42.1339 99.805 37.4447C99.5011 35.5663 99.5569 31.2104 99.7108 29.2395C100.151 23.6526 107.534 24.5792 107.028 29.9215Z" fill="#6D6D6D"/>
<path d="M112.028 12.0044H109.335C109.262 12.0044 109.477 11.0218 108.469 11.0237C107.011 11.0237 107.817 12.5284 108.215 13.2239C109.456 15.3893 112.247 17.7011 112.218 20.3867C112.174 24.6617 104.522 24.6752 104.909 20.0958L107.292 20.1189C107.682 20.2596 107.355 21.1785 108.663 21.0784C110.046 20.9724 109.333 19.6065 108.915 18.8782C107.779 16.8958 105.041 14.4491 104.907 12.0949C104.649 7.5579 111.98 7.50011 112.026 12.0063L112.028 12.0044Z" fill="#6D6D6D"/>
<path d="M95.295 42.4434V44.9479H92.025V48.6083L94.5294 48.7181L94.5275 50.7275H92.025V54.7732H95.295V57.0851H89.332V42.4434H95.295Z" fill="#6D6D6D"/>
<path d="M102.604 42.4434V44.9479H99.4297L99.1412 45.2368V48.3193C99.4394 48.9377 101.784 48.3675 101.838 48.72V50.7294C101.653 50.9105 99.4778 50.4038 99.1412 51.0165V54.4842L99.4297 54.7732H102.604V57.0851H96.6406V42.4434H102.604Z" fill="#6D6D6D"/>
<path d="M87.5992 25.6826V37.8198H90.4845V40.3243H84.9062V25.6826H87.5992Z" fill="#6D6D6D"/>
<path d="M144.15 25.6826H141.457V40.3243H144.15V25.6826Z" fill="#6D6D6D"/>
<path d="M103.759 8.71973H101.066V23.3711H103.759V8.71973Z" fill="#6D6D6D"/>
</g>
<defs>
<clipPath id="clip0_190_1746">
<rect width="153" height="61" fill="white"/>
</clipPath>
</defs>
</svg>
