<svg width="131" height="43" viewBox="0 0 131 43" fill="none" xmlns="http://www.w3.org/2000/svg">
<path d="M51 36.607H45.8186V34.1126C43.8537 35.9845 42.1894 36.9296 40.372 36.9296C38.7788 36.9296 37.672 36.3049 37.12 35.1758C36.7838 34.4897 36.5461 33.4175 36.5461 31.8454V13.708H41.7275V32.2975C41.8478 32.9336 42.1757 33.1653 42.8316 33.1653C43.8236 33.1653 44.72 32.4497 45.8186 31.1617V13.7057H51V36.6024V36.607ZM27.5469 29.8054C27.8202 32.0726 26.973 33.1971 25.3634 33.1971C23.7537 33.1971 22.9093 32.0726 23.1826 29.8054V20.7367C22.9093 18.4695 23.7537 17.4063 25.3634 17.4063C26.973 17.4063 27.8202 18.4695 27.5496 20.7367V29.8054H27.5469ZM32.7283 21.191C32.7283 18.7444 32.138 16.9066 31.0914 15.7503C29.7113 14.1828 27.5469 13.5421 25.3634 13.5421C22.8956 13.5421 21.0154 14.1828 19.6354 15.7503C18.5723 16.9066 18.0039 18.7648 18.0039 21.2115L17.9984 29.3534C17.9984 31.7864 18.504 33.4675 19.567 34.6124C20.9471 36.1731 23.1826 37 25.3634 37C27.5442 37 29.8206 36.1731 31.2007 34.6124C32.2446 33.4675 32.7283 31.7864 32.7283 29.3534V21.191ZM12.2731 24.1375V36.607H6.8184V24.1375C6.8184 24.1375 1.16692 8.85102 0 6.00227H5.728L9.55669 17.9425L13.3663 6H19.0943L12.2759 24.1352L12.2731 24.1375Z" fill="#6D6D6D"/>
<path d="M130.25 9.27758C130.25 9.27758 129.518 5.06537 127.268 3.20862C124.416 0.774849 121.22 0.762484 119.753 0.618231C109.258 0 93.5164 0 93.5164 0H93.4836C93.4836 0 77.7417 0 67.2446 0.618231C65.7774 0.760424 62.5837 0.772789 59.7297 3.20862C57.4823 5.06331 56.75 9.27758 56.75 9.27758C56.75 9.27758 56 14.2234 56 19.1713V23.8101C56 28.758 56.75 33.7039 56.75 33.7039C56.75 33.7039 57.4823 37.9161 59.7297 39.7728C62.5837 42.2087 66.331 42.1304 67.9996 42.3859C73.9994 42.8557 93.4987 43 93.4987 43C93.4987 43 109.258 42.9815 119.753 42.3632C121.218 42.221 124.416 42.2087 127.268 39.7728C129.518 37.9161 130.25 33.7039 130.25 33.7039C130.25 33.7039 131 28.756 131 23.8101V19.1713C131 14.2234 130.25 9.27758 130.25 9.27758ZM78.0009 11.1467H72.4743V34.7981H67.451V11.1467H62.176V7.24566L77.9984 7.24154V11.1488L78.0009 11.1467Z" fill="#6D6D6D"/>
<path d="M119.277 17.9539C119.277 15.8137 119.969 15.231 121.599 15.231C123.229 15.231 123.861 15.8687 123.861 17.9837V20.4818L119.277 20.4864V17.9539ZM128.997 23.9158V19.2362C128.997 16.7909 128.43 15.0016 127.408 13.8455C126.04 12.281 124.097 11.4506 121.645 11.4506C119.193 11.4506 117.206 12.2787 115.795 13.8455C114.757 15.0016 114.152 16.8918 114.152 19.3371V27.3498C114.152 29.7813 114.817 31.4811 115.855 32.6258C117.268 34.188 119.212 34.9702 121.766 34.9702C124.321 34.9702 126.321 34.1512 127.673 32.4905C128.267 31.7564 128.651 30.926 128.816 30.0084C128.859 29.5932 128.989 28.6481 128.989 27.3131V26.6639H123.864C123.864 28.327 123.875 29.3157 123.829 29.5405C123.55 30.6484 122.85 31.2036 121.647 31.2036C119.972 31.2036 119.261 30.1392 119.28 28.0288V23.9181H129L128.997 23.9158ZM105.788 28.0357C105.788 30.325 105.153 31.2036 103.745 31.2036C102.942 31.2036 102.015 30.8526 101.198 30.1598L101.204 16.277C102.02 15.5935 102.942 15.2333 103.745 15.2333C105.153 15.2333 105.788 15.9054 105.788 18.1948V28.038V28.0357ZM106.356 11.4162C104.558 11.4162 102.774 12.3544 101.196 14.0015L101.201 4H96.3462V34.6766H101.201L101.209 32.3712C102.842 34.0847 104.62 34.9702 106.356 34.9702C108.299 34.9702 109.721 34.087 110.373 32.3849C110.697 31.4146 110.911 29.9236 110.911 27.8063V18.649C110.911 16.4812 110.584 14.9993 110.256 14.0795C109.605 12.3659 108.297 11.4139 106.353 11.4139M92.2996 34.6743H87.1744V32.1555C85.2309 34.0457 83.5847 35 81.7871 35C80.2112 35 79.1164 34.3692 78.5704 33.2291C78.2379 32.5363 78 31.4536 78 29.8662V11.781H83.1251V30.3227C83.2441 30.965 83.5657 31.199 84.2172 31.199C85.1984 31.199 86.0851 30.4764 87.1717 29.1757V11.7787H92.2969V34.6697L92.2996 34.6743Z" fill="white"/>
</svg>
